<?xml version="1.0" encoding="UTF-8" standalone="no"?>
<!-- Created with Inkscape (http://www.inkscape.org/) -->

<svg
   xmlns:dc="http://purl.org/dc/elements/1.1/"
   xmlns:cc="http://creativecommons.org/ns#"
   xmlns:rdf="http://www.w3.org/1999/02/22-rdf-syntax-ns#"
   xmlns:svg="http://www.w3.org/2000/svg"
   xmlns="http://www.w3.org/2000/svg"
   xmlns:xlink="http://www.w3.org/1999/xlink"
   xmlns:sodipodi="http://sodipodi.sourceforge.net/DTD/sodipodi-0.dtd"
   xmlns:inkscape="http://www.inkscape.org/namespaces/inkscape"
   width="100%"
   height="100%"
   viewBox="0 0 86.235268 86.518745"
   version="1.1"
   id="svg8"
   inkscape:version="0.92.2 (5c3e80d, 2017-08-06)">
  <defs
     id="defs2" />
  <sodipodi:namedview
     id="base"
     pagecolor="#ffffff"
     bordercolor="#666666"
     borderopacity="1.0"
     inkscape:pageopacity="1"
     inkscape:pageshadow="2"
     inkscape:zoom="0.35"
     inkscape:cx="-22.644885"
     inkscape:cy="1041.9994"
     inkscape:document-units="mm"
     inkscape:current-layer="g3898"
     showgrid="false"
     inkscape:window-width="958"
     inkscape:window-height="1008"
     inkscape:window-x="953"
     inkscape:window-y="0"
     inkscape:window-maximized="0"
     fit-margin-top="0"
     fit-margin-left="0"
     fit-margin-right="0"
     fit-margin-bottom="0"
     inkscape:pagecheckerboard="true" />
  <metadata
     id="metadata5">
    <rdf:RDF>
      <cc:Work
         rdf:about="">
        <dc:format>image/svg+xml</dc:format>
        <dc:type
           rdf:resource="http://purl.org/dc/dcmitype/StillImage" />
        <dc:title></dc:title>
      </cc:Work>
    </rdf:RDF>
  </metadata>
  <g
     inkscape:label="Calque 1"
     inkscape:groupmode="layer"
     id="layer1"
     transform="translate(-46.25892,-202.18545)">
    <g
       id="g3898"
       transform="matrix(1.6975446,0,0,1.703125,-135.67566,114.19331)">
      <path
         style="fill:#f66665;stroke-width:0.08466666"
         d="m 132.34231,99.528081 c 0.0815,-0.02129 0.21484,-0.02129 0.29633,0 0.0815,0.0213 0.0148,0.03872 -0.14817,0.03872 -0.16298,0 -0.22966,-0.01742 -0.14816,-0.03872 z m -0.5715,-1.804303 c 0.0843,-0.09313 0.17229,-0.169334 0.19557,-0.169334 0.0233,0 -0.0266,0.0762 -0.11091,0.169334 -0.0843,0.09313 -0.17229,0.169333 -0.19558,0.169333 -0.0233,0 0.0266,-0.0762 0.11092,-0.169333 z m -0.16934,-0.508 c 0.0843,-0.09313 0.1723,-0.169334 0.19558,-0.169334 0.0233,0 -0.0266,0.0762 -0.11091,0.169334 -0.0843,0.09313 -0.1723,0.169333 -0.19558,0.169333 -0.0233,0 0.0266,-0.0762 0.11091,-0.169333 z m 0.39883,-0.13554 c -0.06,-0.06515 -0.0718,-0.11846 -0.0262,-0.11846 0.0879,0 0.2152,0.161054 0.16498,0.20876 -0.0163,0.01549 -0.0788,-0.02515 -0.13882,-0.0903 z m 0.34201,-0.430823 c 0.0815,-0.0213 0.21484,-0.0213 0.29633,0 0.0815,0.0213 0.0148,0.03872 -0.14817,0.03872 -0.16298,0 -0.22966,-0.01742 -0.14816,-0.03872 z m 10.29229,-3.216807 c 0.0611,-0.02446 0.13414,-0.02145 0.16228,0.0067 0.0281,0.02813 -0.0219,0.04814 -0.11113,0.04447 -0.0986,-0.0041 -0.11869,-0.02412 -0.0512,-0.05115 z m -0.92187,-0.428997 -0.20526,-0.232833 0.23284,0.205258 c 0.21761,0.191845 0.27166,0.260409 0.20525,0.260409 -0.0152,0 -0.11994,-0.104775 -0.23283,-0.232834 z m 1.86908,0.02117 c 0.10936,-0.116417 0.2179,-0.211667 0.24118,-0.211667 0.0233,0 -0.0472,0.09525 -0.15652,0.211667 -0.10937,0.116417 -0.2179,0.211667 -0.24118,0.211667 -0.0233,0 0.0472,-0.09525 0.15652,-0.211667 z m -6.56971,-0.994833 -0.16129,-0.1905 0.1905,0.161289 c 0.10477,0.08871 0.1905,0.174433 0.1905,0.1905 0,0.06775 -0.0681,0.01773 -0.21971,-0.161289 z m 6.99972,0.05644 c 0.004,-0.09863 0.0241,-0.118694 0.0512,-0.05115 0.0245,0.06112 0.0214,0.134144 -0.007,0.162278 -0.0281,0.02813 -0.0481,-0.02187 -0.0445,-0.111125 z m -7.35304,-0.966611 c 0,-0.162983 0.0174,-0.229658 0.0387,-0.148167 0.0213,0.08149 0.0213,0.214842 0,0.296334 -0.0213,0.08149 -0.0387,0.01482 -0.0387,-0.148167 z m 5.06036,0.04233 c 0.10937,-0.116416 0.2179,-0.211666 0.24118,-0.211666 0.0233,0 -0.0471,0.09525 -0.15651,0.211666 -0.10937,0.116417 -0.2179,0.211667 -0.24119,0.211667 -0.0233,0 0.0471,-0.09525 0.15652,-0.211667 z m 1.85626,-0.02117 -0.20526,-0.232834 0.23283,0.205258 c 0.21762,0.191846 0.27166,0.260409 0.20526,0.260409 -0.0152,0 -0.11994,-0.104775 -0.23283,-0.232833 z m -20.891,-1.608667 c -0.008,-0.617008 0.0133,-1.121922 0.0482,-1.122031 0.0349,-8.4e-5 0.0533,0.333266 0.0408,0.740834 -0.0421,1.373949 -0.0737,1.509337 -0.0891,0.381197 z m 14.29341,0.708866 c 0,-0.01758 0.0667,-0.08426 0.14816,-0.148166 0.13429,-0.105314 0.13728,-0.10232 0.032,0.03197 -0.11061,0.141033 -0.18013,0.185884 -0.18013,0.116199 z m 1.16945,-0.449203 c 0.0611,-0.02446 0.13415,-0.02145 0.16228,0.0067 0.0281,0.02813 -0.0219,0.04815 -0.11112,0.04447 -0.0986,-0.0041 -0.1187,-0.02412 -0.0512,-0.05115 z m -10.79868,-1.524836 c 0.0824,-0.02147 0.19668,-0.02005 0.254,0.0031 0.0573,0.02319 -0.0101,0.04076 -0.14977,0.03903 -0.1397,-0.0017 -0.1866,-0.0207 -0.10423,-0.04217 z m 1.60895,-1.549994 c 0,-0.20955 0.0165,-0.295275 0.0367,-0.1905 0.0202,0.104775 0.0202,0.276225 0,0.381 -0.0202,0.104775 -0.0367,0.01905 -0.0367,-0.1905 z m 17.47232,0.04233 c -0.0268,-0.06985 -0.0118,-0.127 0.0333,-0.127 0.0451,0 0.082,0.05715 0.082,0.127 0,0.06985 -0.015,0.127 -0.0333,0.127 -0.0183,0 -0.0552,-0.05715 -0.082,-0.127 z m -26.3626,-0.01634 c 0.0824,-0.02147 0.19668,-0.02005 0.254,0.0031 0.0573,0.02319 -0.0101,0.04076 -0.14978,0.03903 -0.1397,-0.0017 -0.1866,-0.0207 -0.10422,-0.04217 z m 24.59406,0.0026 c 0.0582,-0.02349 0.15345,-0.02349 0.21166,0 0.0582,0.02349 0.0106,0.0427 -0.10583,0.0427 -0.11642,0 -0.16404,-0.01922 -0.10583,-0.0427 z m -1.39511,-0.621259 c 0,-0.20955 0.0165,-0.295275 0.0367,-0.1905 0.0202,0.104775 0.0202,0.276225 0,0.381 -0.0202,0.104775 -0.0367,0.01905 -0.0367,-0.1905 z m 0.93451,-0.296334 c 5.1e-4,-0.2794 0.0163,-0.383492 0.0351,-0.231317 0.0189,0.152176 0.0185,0.380776 -8.6e-4,0.508 -0.0193,0.127225 -0.0347,0.0027 -0.0343,-0.276683 z m -23.47222,-0.515055 c 0.004,-0.09863 0.0241,-0.118694 0.0512,-0.05115 0.0245,0.06112 0.0215,0.134144 -0.007,0.162278 -0.0281,0.02813 -0.0481,-0.02187 -0.0445,-0.111125 z M 131.37901,80.8116 c -0.10532,-0.134286 -0.10232,-0.137281 0.032,-0.03197 0.14104,0.110606 0.18589,0.180133 0.1162,0.180133 -0.0176,0 -0.0843,-0.06668 -0.14816,-0.148167 z m -0.38948,-1.037166 c 0,-0.20955 0.0165,-0.295275 0.0367,-0.1905 0.0202,0.104775 0.0202,0.276225 0,0.381 -0.0202,0.104775 -0.0367,0.01905 -0.0367,-0.1905 z m 2.42587,-0.994834 -0.20526,-0.232833 0.23283,0.205258 c 0.21762,0.191846 0.27166,0.260409 0.20526,0.260409 -0.0152,0 -0.11994,-0.104775 -0.23283,-0.232834 z m -0.41693,-0.275166 c -0.0763,-0.04932 -0.0867,-0.08259 -0.0262,-0.08337 0.0555,-6.77e-4 0.12438,0.0368 0.15316,0.08337 0.065,0.105116 0.0357,0.105116 -0.127,0 z m -0.35454,-0.142504 c 0.0611,-0.02446 0.13415,-0.02145 0.16228,0.0067 0.0281,0.02813 -0.0219,0.04814 -0.11113,0.04447 -0.0986,-0.0041 -0.11869,-0.02412 -0.0511,-0.05115 z m -8.09365,-6.343503 c -0.4183,-0.213396 -0.63966,-0.581916 -0.67786,-1.128456 -0.0272,-0.388652 0.002,-0.522317 0.16535,-0.762959 0.55865,-0.82201 1.6995,-0.826393 2.25058,-0.0086 0.36111,0.535842 0.19384,1.418171 -0.34106,1.799048 -0.34091,0.242753 -1.02256,0.29204 -1.39701,0.101013 z m 3.02312,-7.208826 -0.20526,-0.232834 0.23283,0.205259 c 0.21762,0.191845 0.27166,0.260408 0.20526,0.260408 -0.0152,0 -0.11994,-0.104775 -0.23283,-0.232833 z m -5.04513,-0.6985 c 0,-0.34925 0.0149,-0.492125 0.0332,-0.3175 0.0183,0.174625 0.0183,0.460375 0,0.635 -0.0183,0.174625 -0.0332,0.03175 -0.0332,-0.3175 z m 16.3122,0.503003 c 0,-0.04931 0.0381,-0.06612 0.0847,-0.03734 0.0466,0.02878 0.0847,0.06913 0.0847,0.08966 0,0.02053 -0.0381,0.03734 -0.0847,0.03734 -0.0466,0 -0.0847,-0.04035 -0.0847,-0.08966 z m -8.95816,-0.71467 c 0.002,-0.1397 0.0207,-0.1866 0.0422,-0.104222 0.0215,0.08238 0.02,0.196678 -0.003,0.254 -0.0232,0.05732 -0.0408,-0.01008 -0.039,-0.149778 z m -2.3025,-0.931333 c 0.10936,-0.116417 0.2179,-0.211667 0.24118,-0.211667 0.0233,0 -0.0471,0.09525 -0.15652,0.211667 -0.10937,0.116416 -0.2179,0.211666 -0.24118,0.211666 -0.0233,0 0.0472,-0.09525 0.15652,-0.211666 z m 13.21468,-1.107722 c 0.004,-0.09863 0.0241,-0.118694 0.0512,-0.05115 0.0245,0.06112 0.0214,0.134143 -0.007,0.162278 -0.0281,0.02813 -0.0481,-0.02187 -0.0445,-0.111125 z m -16.2331,-1.220612 c 0,-0.395816 0.0146,-0.557741 0.0324,-0.359833 0.0178,0.197908 0.0178,0.521758 0,0.719667 -0.0178,0.197908 -0.0324,0.03598 -0.0324,-0.359834 z m -3.77079,-0.565836 c 0.0611,-0.02446 0.13414,-0.02145 0.16228,0.0067 0.0281,0.02813 -0.0219,0.04814 -0.11113,0.04447 -0.0986,-0.0041 -0.11869,-0.02413 -0.0512,-0.05115 z m 0.94721,-0.40783 c 0.10936,-0.116417 0.2179,-0.211667 0.24118,-0.211667 0.0233,0 -0.0472,0.09525 -0.15652,0.211667 -0.10937,0.116417 -0.2179,0.211667 -0.24118,0.211667 -0.0233,0 0.0472,-0.09525 0.15652,-0.211667 z m 19.05,-0.122003 c 0,-0.04382 0.0377,-0.102948 0.0837,-0.131398 0.048,-0.02966 0.0622,0.0043 0.0333,0.07967 -0.0563,0.146678 -0.11697,0.173515 -0.11697,0.05173 z m -20.91267,-1.740664 c 0.10937,-0.116416 0.2179,-0.211666 0.24118,-0.211666 0.0233,0 -0.0472,0.09525 -0.15651,0.211666 -0.10937,0.116417 -0.2179,0.211667 -0.24119,0.211667 -0.0233,0 0.0472,-0.09525 0.15652,-0.211667 z m 1.85626,-0.02117 -0.20526,-0.232834 0.23283,0.205259 c 0.21762,0.191845 0.27166,0.260408 0.20526,0.260408 -0.0152,0 -0.11994,-0.104775 -0.23283,-0.232833 z"
         id="path3916"
         inkscape:connector-curvature="0" />
      <path
         style="fill:#ddb220;stroke-width:0.08466666"
         d="m 127.07836,93.557235 c -0.9511,-0.509301 -0.93988,-1.846836 0.0196,-2.34062 0.90374,-0.465084 1.92114,0.16976 1.92114,1.198771 0,0.98427 -1.06496,1.610834 -1.94078,1.141849 z m 11.80445,-21.482604 c -0.23239,-0.09481 -0.639,-0.513434 -0.72962,-0.751198 -0.50483,-1.324407 1.21827,-2.437179 2.20211,-1.422117 0.826,0.852217 0.2357,2.265081 -0.93912,2.247762 -0.20022,-0.003 -0.44024,-0.03645 -0.53337,-0.07445 z"
         id="path3914"
         inkscape:connector-curvature="0" />
      <!-- purple top -->
      <path
         style="fill:#9859b2;stroke-width:0.08466666"
         d="m 3.06388,0.02587 c 0,-0.01758 0.0667,-0.08426 0.14817,-0.148167 0.13428,-0.105314 0.13728,-0.102319 0.032,0.03197 -0.1106,0.141034 -0.18013,0.185884 -0.18013,0.1162 z m 22.51053,-0.1162 c -0.10531,-0.134286 -0.10232,-0.137281 0.032,-0.03197 0.0815,0.06391 0.14817,0.130586 0.14817,0.148167 0,0.06968 -0.0695,0.02483 -0.18014,-0.1162 z m 3.12759,0.09033 c 0.0611,-0.02446 0.13415,-0.02145 0.16228,0.0067 0.0281,0.02813 -0.0219,0.04815 -0.11112,0.04447 -0.0986,-0.0041 -0.1187,-0.02413 -0.0512,-0.05115 z m -16.002,-7.112 c 0.0611,-0.02446 0.13415,-0.02145 0.16228,0.0067 0.0281,0.02813 -0.0219,0.04814 -0.11112,0.04447 -0.0986,-0.0041 -0.1187,-0.02412 -0.0512,-0.05115 z m 3.12738,0.0018 c 0.0582,-0.02349 0.15346,-0.02349 0.21167,0 0.0582,0.02349 0.0106,0.0427 -0.10584,0.0427 -0.11641,0 -0.16404,-0.01922 -0.10583,-0.0427 z m -0.3888,-0.451924 c 0,-0.116417 0.0192,-0.164042 0.0427,-0.105833 0.0235,0.05821 0.0235,0.153458 0,0.211666 -0.0235,0.05821 -0.0427,0.01058 -0.0427,-0.105833 z m 0.92465,0.03528 c 0.004,-0.09863 0.0241,-0.118694 0.0512,-0.05115 0.0245,0.06112 0.0214,0.134144 -0.007,0.162278 -0.0281,0.02813 -0.0481,-0.02187 -0.0445,-0.111125 z m -0.80144,-0.389437 c 0.0245,-0.03956 0.0799,-0.05002 0.12327,-0.02322 0.11078,0.06846 0.0983,0.09516 -0.0445,0.09516 -0.0678,0 -0.10326,-0.03237 -0.0788,-0.07194 z m -2.86179,-0.127011 c 0.0611,-0.02446 0.13415,-0.02145 0.16228,0.0067 0.0281,0.02813 -0.0219,0.04815 -0.11112,0.04447 -0.0986,-0.0041 -0.1187,-0.02412 -0.0512,-0.05115 z m 3.12738,0.0018 c 0.0582,-0.02349 0.15346,-0.02349 0.21167,0 0.0582,0.02349 0.0106,0.04271 -0.10584,0.04271 -0.11641,0 -0.16404,-0.01922 -0.10583,-0.04271 z m -6.07939,-7.119424 -0.29178,-0.3175 0.3175,0.291775 c 0.29553,0.271578 0.35643,0.343225 0.29178,0.343225 -0.0142,0 -0.15702,-0.142875 -0.3175,-0.3175 z m 7.87856,-0.05313 c 0,-0.01758 0.0667,-0.08426 0.14816,-0.148166 0.13429,-0.105315 0.13728,-0.10232 0.032,0.03197 -0.11061,0.141034 -0.18013,0.185884 -0.18013,0.1162 z m -9.07014,-1.047533 c -0.10531,-0.134286 -0.10232,-0.137281 0.032,-0.03197 0.0815,0.06391 0.14817,0.130586 0.14817,0.148167 0,0.06968 -0.0695,0.02483 -0.18014,-0.1162 z m 1.10506,-0.08467 -0.20526,-0.232833 0.23284,0.205258 c 0.21761,0.191846 0.27166,0.260409 0.20525,0.260409 -0.0152,0 -0.11994,-0.104775 -0.23283,-0.232834 z m 15.24641,0.03153 c 0,-0.01758 0.0667,-0.08426 0.14817,-0.148167 0.13428,-0.105314 0.13728,-0.10232 0.032,0.03197 -0.1106,0.141033 -0.18013,0.185884 -0.18013,0.1162 z m -5.92667,-0.338667 c 0,-0.01758 0.0667,-0.08426 0.14817,-0.148167 0.13429,-0.105314 0.13728,-0.102319 0.032,0.03197 -0.11061,0.141034 -0.18014,0.185884 -0.18014,0.1162 z M 125.4523,66.079699 c -0.10531,-0.134287 -0.10232,-0.137281 0.032,-0.03197 0.14103,0.110606 0.18588,0.180133 0.1162,0.180133 -0.0176,0 -0.0843,-0.06668 -0.14817,-0.148166 z m 1.03348,-0.493889 c 0.004,-0.09863 0.0241,-0.118694 0.0512,-0.05115 0.0245,0.06112 0.0215,0.134143 -0.007,0.162278 -0.0281,0.02813 -0.0481,-0.02187 -0.0445,-0.111125 z m 15.55611,-0.770448 c 0.0611,-0.02446 0.13415,-0.02145 0.16228,0.0067 0.0281,0.02813 -0.0219,0.04814 -0.11113,0.04447 -0.0986,-0.0041 -0.11869,-0.02412 -0.0511,-0.05115 z m -19.68187,-0.704163 c 0,-0.395817 0.0146,-0.557742 0.0324,-0.359834 0.0178,0.197909 0.0178,0.521759 0,0.719667 -0.0178,0.197908 -0.0324,0.03598 -0.0324,-0.359833 z m 15.74147,0.254 c 0,-0.20955 0.0165,-0.295275 0.0367,-0.1905 0.0202,0.104775 0.0202,0.276225 0,0.381 -0.0202,0.104775 -0.0367,0.01905 -0.0367,-0.1905 z m 0.75231,0 c 0,-0.116417 0.0192,-0.164042 0.0427,-0.105834 0.0235,0.05821 0.0235,0.153459 0,0.211667 -0.0235,0.05821 -0.0427,0.01058 -0.0427,-0.105833 z m -17.37644,-1.672167 -0.20526,-0.232833 0.23283,0.205258 c 0.21762,0.191845 0.27166,0.260408 0.20526,0.260408 -0.0152,0 -0.11994,-0.104775 -0.23283,-0.232833 z m 5.80607,-0.613833 c 0.0843,-0.09313 0.1723,-0.169334 0.19558,-0.169334 0.0233,0 -0.0266,0.0762 -0.11091,0.169334 -0.0843,0.09313 -0.1723,0.169333 -0.19558,0.169333 -0.0233,0 0.0266,-0.0762 0.11091,-0.169333 z m 16.13569,-0.134055 c 0.004,-0.09863 0.0241,-0.118695 0.0512,-0.05115 0.0245,0.06112 0.0214,0.134144 -0.007,0.162279 -0.0281,0.02813 -0.0481,-0.02187 -0.0445,-0.111125 z m -3.46151,-0.331612 c 0.002,-0.1397 0.0207,-0.1866 0.0422,-0.104222 0.0215,0.08238 0.0201,0.196678 -0.003,0.254 -0.0232,0.05732 -0.0408,-0.01008 -0.039,-0.149778 z m -16.24627,-0.338667 c 5e-4,-0.2794 0.0163,-0.383492 0.0351,-0.231316 0.0188,0.152175 0.0185,0.380775 -8.6e-4,0.508 -0.0193,0.127224 -0.0347,0.0027 -0.0343,-0.276684 z m 0.82711,0.162279 c 0.004,-0.09863 0.0241,-0.118695 0.0512,-0.05115 0.0245,0.06112 0.0215,0.134144 -0.007,0.162279 -0.0281,0.02813 -0.0481,-0.02187 -0.0445,-0.111125 z m 17.16776,-0.03196 c -0.78891,-0.429141 -0.90606,-1.54792 -0.22799,-2.177265 0.24136,-0.224013 0.84119,-0.440832 1.00827,-0.364455 0.91963,0.420389 1.10618,0.627384 1.15906,1.286053 0.0396,0.493905 -0.14223,0.863729 -0.58664,1.192882 -0.32835,0.243185 -0.9666,0.272809 -1.3527,0.06279 z m -17.99487,-1.230989 c 5e-4,-0.2794 0.0163,-0.383493 0.0351,-0.231317 0.0188,0.152175 0.0185,0.05115 0.0245,0.06112 0.0215,0.134144 -0.007,0.162278 -0.0281,0.02813 -0.0482,-0.02187 -0.0445,-0.111125 z m 16.67933,-0.846667 c 0.004,-0.09863 0.0241,-0.118694 0.0512,-0.05115 0.0245,0.06112 0.0214,0.134144 -0.007,0.162278 -0.0281,0.02813 -0.0481,-0.02187 -0.0445,-0.111125 z m -0.93133,-0.254 c 0.004,-0.09863 0.0241,-0.118694 0.0512,-0.05115 0.0245,0.06112 0.0214,0.134144 -0.007,0.162278 -0.0281,0.02813 -0.0481,-0.02187 -0.0445,-0.111125 z m 2.032,-0.08467 c 0.004,-0.09863 0.0241,-0.118694 0.0511,-0.05115 0.0245,0.06112 0.0215,0.134143 -0.007,0.162277 -0.0281,0.02813 -0.0481,-0.02187 -0.0445,-0.111125 z m 0,-0.931333 c 0.004,-0.09863 0.0241,-0.118694 0.0511,-0.05115 0.0245,0.06112 0.0215,0.134144 -0.007,0.162278 -0.0281,0.02813 -0.0481,-0.02187 -0.0445,-0.111125 z m -22.01334,-0.338667 c 0.004,-0.09863 0.0241,-0.118694 0.0512,-0.05115 0.0245,0.06112 0.0215,0.134143 -0.007,0.162277 -0.0281,0.02813 -0.0482,-0.02187 -0.0445,-0.111125 z m 22.78202,-0.204611 c 0,-0.116416 0.0192,-0.164041 0.0427,-0.105833 0.0235,0.05821 0.0235,0.153458 0,0.211667 -0.0235,0.05821 -0.0427,0.01058 -0.0427,-0.105834 z m -22.42726,-0.14334 c 0.0824,-0.02147 0.19668,-0.02005 0.254,0.0031 0.0573,0.02319 -0.0101,0.04076 -0.14977,0.03903 -0.1397,-0.0017 -0.1866,-0.0207 -0.10423,-0.04217 z"
         id="path3912"
         inkscape:connector-curvature="0" />
      <!-- purple bottom -->
      <path
            style="fill:#9859b2;stroke-width:0.08466666"
            d="m 130.75481,93.982445 -0.16934,-0.175268 0.1905,0.09861 c 0.10478,0.05424 0.1905,0.135371 0.1905,0.1803 0,0.108106 -0.0134,0.10152 -0.21166,-0.103645 z m 2.97191,0.02988 c -0.0215,-0.03487 0.0344,-0.06893 0.12429,-0.07571 0.19444,-0.01465 0.21154,0.02526 0.0392,0.09141 -0.0683,0.02623 -0.14192,0.01917 -0.16346,-0.0157 z m 0.61562,-0.07738 c -0.10531,-0.134287 -0.10232,-0.137282 0.032,-0.03197 0.14103,0.110606 0.18588,0.180133 0.1162,0.180133 -0.0176,0 -0.0843,-0.06668 -0.14817,-0.148166 z m -10.9112,-0.815134 c 0,-0.01758 0.0667,-0.08426 0.14817,-0.148167 0.13428,-0.105314 0.13728,-0.102319 0.032,0.03197 -0.1106,0.141034 -0.18013,0.185884 -0.18013,0.1162 z m -2.19465,-1.033422 c 0.004,-0.09863 0.0241,-0.118694 0.0511,-0.05115 0.0245,0.06112 0.0215,0.134144 -0.007,0.162278 -0.0281,0.02813 -0.0481,-0.02187 -0.0445,-0.111125 z m -3.08146,-1.089277 c -0.408,-0.145514 -0.64258,-0.353596 -0.78924,-0.700115 -0.23107,-0.545938 -0.10993,-1.119719 0.32114,-1.521079 0.84453,-0.786323 2.18821,-0.209178 2.18821,0.939891 0,0.66232 -0.35675,1.142562 -0.97367,1.310714 -0.40494,0.110374 -0.34822,0.11261 -0.74644,-0.02941 z m 4.34607,-0.364167 c 7.6e-4,-0.08456 0.0284,-0.111818 0.0645,-0.0635 0.0348,0.04657 0.0977,0.113241 0.13981,0.148166 0.0422,0.03493 0.0131,0.0635 -0.0645,0.0635 -0.0784,0 -0.14054,-0.0658 -0.13982,-0.148166 z m 8.56341,-0.275167 c 0,-0.116417 0.0192,-0.164042 0.0427,-0.105833 0.0235,0.05821 0.0235,0.153458 0,0.211666 -0.0235,0.05821 -0.0427,0.01058 -0.0427,-0.105833 z m -8.53238,-0.889 c 1.7e-4,-0.5588 0.0139,-0.776382 0.0305,-0.483515 0.0166,0.292866 0.0164,0.750066 -3.4e-4,1.016 -0.0168,0.265933 -0.0303,0.02632 -0.0302,-0.532485 z m 2.4918,-0.692837 c 0.0611,-0.02446 0.13414,-0.02145 0.16228,0.0067 0.0281,0.02813 -0.0219,0.04814 -0.11113,0.04447 -0.0986,-0.0041 -0.11869,-0.02412 -0.0512,-0.05115 z m -1.18533,-0.169333 c 0.0611,-0.02446 0.13414,-0.02145 0.16228,0.0067 0.0281,0.02813 -0.0219,0.04815 -0.11113,0.04447 -0.0986,-0.0041 -0.11869,-0.02412 -0.0512,-0.05115 z m 3.21733,-0.338667 c 0.0611,-0.02446 0.13414,-0.02145 0.16228,0.0067 0.0281,0.02813 -0.0219,0.04815 -0.11113,0.04447 -0.0986,-0.0041 -0.11869,-0.02412 -0.0511,-0.05115 z m 19.6048,-1.254496 c 2.5e-4,-0.465667 0.0144,-0.645365 0.0316,-0.399329 0.0172,0.246036 0.017,0.627036 -4.2e-4,0.846667 -0.0174,0.21963 -0.0314,0.01833 -0.0312,-0.447338 z m -0.1772,0.211666 c 0,-0.20955 0.0165,-0.295275 0.0367,-0.1905 0.0202,0.104775 0.0202,0.276225 0,0.381 -0.0202,0.104775 -0.0367,0.01905 -0.0367,-0.1905 z m -18.28971,-0.127 c 9.4e-4,-0.186266 0.0183,-0.252497 0.0385,-0.147179 0.0203,0.105318 0.0195,0.257718 -0.002,0.338667 -0.0212,0.08095 -0.0378,-0.0052 -0.0368,-0.191488 z m -4.99704,-0.211666 c 0,-0.162984 0.0174,-0.229659 0.0387,-0.148167 0.0213,0.08149 0.0213,0.214842 0,0.296333 -0.0213,0.08149 -0.0387,0.01482 -0.0387,-0.148166 z m 18.53573,0.08467 c 0,-0.116416 0.0192,-0.164041 0.0427,-0.105833 0.0235,0.05821 0.0235,0.153458 0,0.211667 -0.0235,0.05821 -0.0427,0.01058 -0.0427,-0.105834 z m -17.61067,-0.169333 c 0,-0.116417 0.0192,-0.164042 0.0427,-0.105833 0.0235,0.05821 0.0235,0.153458 0,0.211666 -0.0235,0.05821 -0.0427,0.01058 -0.0427,-0.105833 z m 16.67933,0 c 0,-0.116417 0.0192,-0.164042 0.0427,-0.105833 0.0235,0.05821 0.0235,0.153458 0,0.211666 -0.0235,0.05821 -0.0427,0.01058 -0.0427,-0.105833 z m -20.05972,-0.762 c 0,-0.162983 0.0174,-0.229658 0.0387,-0.148167 0.0213,0.08149 0.0213,0.214842 0,0.296334 -0.0213,0.08149 -0.0387,0.01482 -0.0387,-0.148167 z m -0.013,-0.472722 c 0.004,-0.09863 0.0241,-0.118694 0.0512,-0.05115 0.0245,0.06112 0.0215,0.134144 -0.007,0.162278 -0.0281,0.02813 -0.0481,-0.02187 -0.0445,-0.111125 z m 19.88998,-0.06724 c 0,-0.01758 0.0667,-0.08426 0.14817,-0.148166 0.13429,-0.105315 0.13728,-0.10232 0.032,0.03197 -0.11061,0.141034 -0.18014,0.185884 -0.18014,0.1162 z m 3.47802,-0.864088 c 0.004,-0.09863 0.0241,-0.118694 0.0512,-0.05115 0.0245,0.06112 0.0215,0.134144 -0.007,0.162278 -0.0281,0.02813 -0.0481,-0.02187 -0.0445,-0.111125"
            id="gvpath3912"
            inkscape:connector-curvature="0" />
      <path
         style="fill:#0687cb;stroke-width:0.08466666"
         d="m 122.00681,93.263291 c -0.89043,-0.438782 -0.9363,-1.78027 -0.0793,-2.318289 0.35357,-0.221958 1.10471,-0.194839 1.43823,0.05192 0.55639,0.411669 0.73266,1.216113 0.38086,1.738149 -0.42254,0.62701 -1.11357,0.836809 -1.73981,0.528215 z m 19.53011,-25.931524 c -0.63176,-0.343657 -0.87011,-1.231302 -0.49557,-1.845596 0.53296,-0.874121 1.8891,-0.808001 2.32635,0.113423 0.53142,1.119879 -0.74181,2.324532 -1.83078,1.732173 z"
         id="path3910"
         inkscape:connector-curvature="0" />
      <path
         style="fill:#d26402;stroke-width:0.08466666"
         d="m 137.65514,92.376104 c -1.29616,-0.370885 -1.21602,-2.242656 0.10795,-2.5214 0.6732,-0.141732 1.42279,0.383912 1.54043,1.080215 0.15316,0.906593 -0.75174,1.697753 -1.64838,1.441185 z M 120.20183,59.864443 c -0.85065,-0.49326 -0.87067,-1.604975 -0.0401,-2.2251 0.32396,-0.241874 1.05015,-0.241874 1.37412,0 0.43239,0.322825 0.58294,0.605734 0.58294,1.095436 0,1.012664 -1.05083,1.631913 -1.91698,1.129664 z"
         id="path3908"
         inkscape:connector-curvature="0" />
      <path
         style="fill:#4fa12c;stroke-width:0.08466666"
         d="m 146.17424,90.43953 c -0.77601,-0.232346 -1.15894,-1.283594 -0.7086,-1.94528 0.31716,-0.466012 0.60447,-0.628091 1.11338,-0.628091 0.80992,0 1.38797,0.651564 1.29668,1.46157 -0.0534,0.473735 -0.26968,0.768753 -0.73962,1.008882 -0.39519,0.201928 -0.56903,0.22053 -0.96184,0.102919 z m -8.24375,-1.055419 c 9.4e-4,-0.186266 0.0183,-0.252497 0.0385,-0.147179 0.0203,0.105318 0.0195,0.257718 -0.002,0.338666 -0.0212,0.08095 -0.0378,-0.0052 -0.0368,-0.191487 z m -19.46301,-1.947333 c 1.7e-4,-0.512233 0.0141,-0.710867 0.031,-0.441409 0.0169,0.269459 0.0167,0.688559 -3.4e-4,0.931333 -0.017,0.242775 -0.0308,0.02231 -0.0306,-0.489924 z m 3.39313,-20.058092 c -0.84597,-0.368481 -1.03906,-1.493674 -0.36877,-2.148999 1.16433,-1.138349 2.94944,0.499007 1.94132,1.780631 -0.34676,0.440823 -1.0357,0.602207 -1.57255,0.368368 z m 4.52306,-0.367741 c -0.10531,-0.134286 -0.10232,-0.137281 0.032,-0.03197 0.0815,0.06391 0.14817,0.130586 0.14817,0.148167 0,0.06968 -0.0695,0.02483 -0.18014,-0.1162 z m 1.016,-0.169333 c -0.10531,-0.134287 -0.10232,-0.137281 0.032,-0.03197 0.0815,0.06391 0.14817,0.130586 0.14817,0.148167 0,0.06968 -0.0695,0.02483 -0.18014,-0.1162 z m 10.68549,-2.017889 c 0.004,-0.09863 0.0241,-0.118694 0.0512,-0.05115 0.0245,0.06112 0.0214,0.134143 -0.007,0.162278 -0.0281,0.02813 -0.0481,-0.02187 -0.0445,-0.111125 z m 4.0851,-0.839611 c 3.3e-4,-0.325967 0.0157,-0.448942 0.034,-0.273279 0.0183,0.175664 0.018,0.442364 -6.7e-4,0.592667 -0.0187,0.150303 -0.0337,0.0066 -0.0333,-0.319388 z m -4.0851,-0.09172 c 0.004,-0.09863 0.0241,-0.118694 0.0512,-0.05115 0.0245,0.06112 0.0214,0.134143 -0.007,0.162278 -0.0281,0.02813 -0.0481,-0.02187 -0.0445,-0.111125 z m -11.35202,-2.353245 c 0,-0.01758 0.0667,-0.08426 0.14817,-0.148167 0.13428,-0.105314 0.13728,-0.102319 0.032,0.03197 -0.1106,0.141034 -0.18013,0.185884 -0.18013,0.1162 z m 15.60825,-3.439366 c 0,-0.395817 0.0146,-0.557742 0.0324,-0.359834 0.0178,0.197909 0.0178,0.521759 0,0.719667 -0.0178,0.197908 -0.0324,0.03598 -0.0324,-0.359833 z m -2.72555,-1.693334 c 0,-0.116416 0.0192,-0.164041 0.0427,-0.105833 0.0235,0.05821 0.0235,0.153458 0,0.211667 -0.0235,0.05821 -0.0427,0.01058 -0.0427,-0.105834 z"
         id="path3906"
         inkscape:connector-curvature="0" />
      <path
         style="fill:#f50302;stroke-width:0.08466666"
         d="m 142.03198,93.163403 c -0.70542,-0.465117 -0.80825,-1.417083 -0.21313,-1.973009 0.55483,-0.518293 1.27418,-0.478005 1.79695,0.100639 0.26499,0.29331 0.30467,0.392886 0.30467,0.764527 0,0.521566 -0.17415,0.880673 -0.53327,1.099645 -0.35599,0.217058 -1.03225,0.221148 -1.35522,0.0082 z M 128.192,65.106594 c -0.15224,-0.04927 -0.40942,-0.236371 -0.5715,-0.415777 -0.25774,-0.285291 -0.29465,-0.381899 -0.29438,-0.770449 6e-4,-0.792864 0.45108,-1.24859 1.23432,-1.24859 0.52131,0 0.9052,0.242821 1.13527,0.718097 0.21101,0.435884 0.19638,0.730872 -0.0576,1.161331 -0.28913,0.490047 -0.91056,0.728712 -1.44611,0.555388 z"
         id="path3904"
         inkscape:connector-curvature="0" />
      <path
         style="fill:#b50203;stroke-width:0.08466666"
         d="m 131.80025,99.330928 c -0.62239,-0.32882 -0.89143,-1.134003 -0.59945,-1.794063 0.21988,-0.497075 0.60347,-0.765066 1.1613,-0.811326 0.86563,-0.07178 1.51933,0.521641 1.51933,1.379239 0,1.065424 -1.12776,1.729856 -2.08118,1.22615 z m -0.0523,-1.519614 c 0.27492,-0.216252 0.46317,-0.654772 0.33578,-0.782166 -0.20519,-0.205191 -0.86161,0.525456 -0.74502,0.829272 0.0619,0.16136 0.15832,0.150263 0.40924,-0.04711 z m 10.7977,-4.465418 c 0.10531,-0.02025 0.25771,-0.01948 0.33866,0.0017 0.081,0.02119 -0.005,0.03776 -0.19148,0.03682 -0.18627,-9.4e-4 -0.2525,-0.01828 -0.14718,-0.03853 z m 1.39619,-1.252451 c 9.4e-4,-0.186267 0.0183,-0.252498 0.0385,-0.14718 0.0203,0.105318 0.0195,0.257718 -0.002,0.338667 -0.0212,0.08095 -0.0378,-0.0052 -0.0368,-0.191487 z m -0.40767,-0.910167 -0.24868,-0.275167 0.27517,0.248674 c 0.15134,0.13677 0.27517,0.260595 0.27517,0.275167 0,0.06541 -0.0699,0.0078 -0.30166,-0.248674 z m -11.72355,-10.16 c -0.50808,-0.256674 -0.75946,-0.648923 -0.75946,-1.185058 0,-0.74941 0.3949,-1.267782 1.08598,-1.425521 0.84047,-0.191839 1.70802,0.513183 1.70802,1.388043 0,0.456134 -0.33503,0.994073 -0.75862,1.218071 -0.46373,0.245226 -0.79704,0.246392 -1.27592,0.0045 z m -4.19379,-16.256 -0.24867,-0.275166 0.27517,0.248673 c 0.25649,0.231799 0.31408,0.30166 0.24867,0.30166 -0.0146,0 -0.1384,-0.123825 -0.27517,-0.275167 z m -0.35432,-0.867833 c 9.4e-4,-0.186267 0.0183,-0.252497 0.0385,-0.147179 0.0203,0.105317 0.0195,0.257717 -0.002,0.338666 -0.0212,0.08095 -0.0378,-0.0052 -0.0368,-0.191487 z m 1.1438,-1.287548 c 0.10532,-0.02025 0.25772,-0.01948 0.33867,0.0017 0.081,0.02119 -0.005,0.03776 -0.19149,0.03682 -0.18626,-9.4e-4 -0.25249,-0.01828 -0.14718,-0.03853 z"
         id="path3902"
         inkscape:connector-curvature="0" />
      <path
         style="fill:#623204;stroke-width:0.08466666"
         d="m 130.64665,94.628644 c -0.21947,-0.15372 -0.24609,-0.475528 -0.0551,-0.666485 0.33634,-0.336338 0.8922,0.03224 0.72235,0.478977 -0.0711,0.18711 -0.24508,0.319308 -0.42015,0.319308 -0.0324,0 -0.14358,-0.05931 -0.24707,-0.1318 z m 0.27749,-0.546693 c 0,-0.181483 -0.24601,-0.15527 -0.2817,0.03001 -0.0218,0.113149 0.0127,0.147631 0.12584,0.125841 0.0857,-0.01651 0.15586,-0.08664 0.15586,-0.155856 z m 2.83633,0.50916 c -0.20378,-0.203786 -0.21172,-0.325135 -0.0375,-0.573827 0.15986,-0.228227 0.4689,-0.243851 0.65941,-0.03334 0.19512,0.215607 0.17477,0.488629 -0.048,0.6447 -0.24869,0.174191 -0.37004,0.166253 -0.57383,-0.03753 z m 0.32255,-0.486833 c -0.0157,-0.08149 -0.0846,-0.148167 -0.15321,-0.148167 -0.0686,0 -0.13753,0.06667 -0.15322,0.148167 -0.02,0.103958 0.0257,0.148166 0.15322,0.148166 0.12752,0 0.17323,-0.04421 0.15321,-0.148166 z m -6.49671,-3.965939 c 0.007,-0.493226 -0.0209,-0.927781 -0.0608,-0.965679 -0.04,-0.0379 -1.04421,-0.209135 -2.23166,-0.380527 -1.18745,-0.171392 -2.26267,-0.33193 -2.38938,-0.356748 l -0.23038,-0.04512 -0.0262,1.174259 -0.0262,1.174259 -0.0186,-1.162554 c -0.018,-1.130001 -0.0239,-1.163708 -0.20907,-1.203765 -2.02759,-0.438639 -2.74627,-0.701828 -3.38357,-1.239102 l -0.39907,-0.336439 -0.0277,0.82793 -0.0277,0.82793 -0.0177,-0.912581 c -0.016,-0.824951 -0.0419,-0.96049 -0.26957,-1.41151 -0.27054,-0.535934 -0.59481,-1.600209 -0.59481,-1.952201 0,-0.330726 0.22502,-0.592041 0.50982,-0.592041 0.3085,0 0.35449,0.08592 0.63207,1.180979 0.36119,1.424858 0.78174,2.03513 1.40309,2.036037 0.46532,6.78e-4 0.53185,-0.142805 0.59396,-1.280905 0.0886,-1.623716 0.31613,-2.190111 0.87981,-2.190111 0.45927,0 0.49544,0.330649 0.17225,1.574544 -0.2712,1.043796 -0.27647,1.606254 -0.0186,1.988868 0.23541,0.349324 0.51049,0.497691 0.92581,0.49934 0.39308,0.0016 0.45529,-0.108589 0.50946,-0.902068 0.0499,-0.730445 0.2618,-1.158332 0.59303,-1.197297 0.16525,-0.01944 0.2618,0.03234 0.37098,0.198979 0.13098,0.199888 0.13514,0.269595 0.037,0.618946 -0.0608,0.216528 -0.13041,0.4852 -0.15462,0.597047 -0.0686,0.316729 0.20733,0.728851 0.64542,0.964143 0.47891,0.257219 1.63205,0.558513 2.39661,0.626188 0.51949,0.04598 0.58,0.03362 0.77118,-0.15756 0.25484,-0.254837 0.35042,-0.80652 0.26994,-1.558036 -0.0628,-0.586237 0.019,-0.797761 0.30835,-0.797761 0.29124,0 0.41514,0.424577 0.41514,1.422608 0,1.119482 0.0987,1.311797 0.93134,1.814413 0.85631,0.516917 1.18533,0.895213 1.18533,1.362836 0,0.48461 -0.99652,0.517157 -1.25571,0.04101 -0.34973,-0.642454 -0.81351,-0.959215 -1.6941,-1.157069 l -0.35219,-0.07913 v 0.922334 c 0,0.577128 -0.0327,0.922333 -0.0873,0.922333 -0.0552,0 -0.083,-0.329566 -0.0755,-0.896772 z m 6.534,0.555467 c -0.32429,-0.130346 -0.25809,-0.574073 0.15578,-1.044259 0.58733,-0.667232 1.54928,-1.03861 3.54838,-1.369909 1.77368,-0.293941 2.29216,-0.45833 2.72639,-0.864425 0.30161,-0.282067 0.35356,-0.565748 0.19771,-1.079567 -0.16951,-0.55886 -0.16292,-0.747921 0.0323,-0.924549 0.43737,-0.395812 0.84053,0.09531 0.91368,1.113027 0.026,0.36226 0.085,0.706279 0.13102,0.764487 0.12778,0.161598 0.66455,0.125563 0.97821,-0.06567 0.56416,-0.343955 0.65219,-1.010192 0.30836,-2.333555 -0.11865,-0.456646 -0.20438,-0.984691 -0.1905,-1.173436 0.0249,-0.339102 0.0292,-0.343172 0.36051,-0.343172 0.28367,0 0.36379,0.04229 0.52039,0.274659 0.23165,0.343745 0.37198,1.129121 0.37198,2.081776 0,0.823968 0.13265,1.072845 0.5715,1.072248 0.60942,-8.46e-4 1.08492,-0.659052 1.38253,-1.9138 0.2677,-1.12863 0.3567,-1.303216 0.66437,-1.303216 0.18343,0 0.29789,0.06337 0.40232,0.22276 0.13683,0.208826 0.13735,0.264426 0.008,0.888855 -0.0757,0.366352 -0.2358,0.880314 -0.35567,1.142138 -0.17682,0.386239 -0.22111,0.621854 -0.23476,1.248978 -0.0165,0.758637 -0.0174,0.76158 -0.046,0.159102 -0.0161,-0.337608 -0.0456,-0.613833 -0.0656,-0.613833 -0.02,0 -0.20321,0.166811 -0.40709,0.370692 -0.48289,0.482889 -1.22877,0.829503 -2.40659,1.118356 l -0.9525,0.233591 v 1.170681 c 0,0.724009 -0.0323,1.17068 -0.0847,1.17068 -0.0524,0 -0.0847,-0.45067 -0.0847,-1.182677 0,-0.909841 -0.0244,-1.173962 -0.10584,-1.144902 -0.10691,0.03816 -4.14779,0.634245 -4.29957,0.634245 -0.0451,0 -0.0819,0.17145 -0.0819,0.381 0,0.20955 -0.0296,0.381 -0.0657,0.381 -0.0361,0 -0.0512,-0.1524 -0.0334,-0.338666 0.0294,-0.308663 0.0146,-0.338552 -0.1671,-0.337367 -0.35167,0.0023 -1.52469,0.33185 -1.88371,0.529221 -0.20219,0.111157 -0.45397,0.357042 -0.60168,0.587594 -0.34658,0.540949 -0.70946,0.6877 -1.2065,0.487913 z M 130.50685,76.25473 c -0.17677,-0.176776 -0.16823,-0.401527 0.0218,-0.573496 0.28104,-0.254339 0.7765,-0.09323 0.7765,0.252491 0,0.414543 -0.50263,0.61666 -0.79829,0.321005 z m 0.37496,-0.412288 c 0,-0.165535 -0.16412,-0.255748 -0.27094,-0.14893 -0.0478,0.04776 -0.0612,0.128264 -0.03,0.178889 0.083,0.134283 0.3009,0.112587 0.3009,-0.02996 z m 2.81093,0.443736 c -0.0559,-0.05588 -0.1016,-0.20066 -0.1016,-0.321733 0,-0.121073 0.0457,-0.265853 0.1016,-0.321733 0.0559,-0.05588 0.20066,-0.1016 0.32173,-0.1016 0.12108,0 0.26586,0.04572 0.32174,0.1016 0.0559,0.05588 0.1016,0.20066 0.1016,0.321733 0,0.121073 -0.0457,0.265853 -0.1016,0.321733 -0.0559,0.05588 -0.20066,0.1016 -0.32174,0.1016 -0.12107,0 -0.26585,-0.04572 -0.32173,-0.1016 z m 0.32173,-0.491066 c 0,-0.09313 -0.0549,-0.169334 -0.122,-0.169334 -0.14957,0 -0.2452,0.139331 -0.17433,0.254 0.0921,0.14898 0.29633,0.09062 0.29633,-0.08467 z m -4.38273,-3.980605 c -0.25546,-0.105061 -0.3586,-0.406891 -0.3586,-1.049451 0,-0.672117 -0.0966,-0.764628 -0.93133,-0.891783 -1.34545,-0.204956 -2.02438,-0.456095 -2.68817,-0.994372 l -0.35983,-0.291793 v 0.429002 c 0,0.235951 -0.0381,0.429002 -0.0847,0.429002 -0.0478,0 -0.0847,-0.240317 -0.0847,-0.551616 0,-0.450735 -0.045,-0.632673 -0.24595,-0.994834 -0.31713,-0.571494 -0.38645,-0.906837 -0.23132,-1.119002 0.16211,-0.221693 0.3225,-0.08522 0.59219,0.503858 0.51858,1.132712 1.83537,1.965412 2.99072,1.891234 l 0.40457,-0.02597 -0.63351,-0.635 c -0.34843,-0.34925 -1.08287,-1.065193 -1.63209,-1.590985 -0.94615,-0.905791 -1.64301,-1.799614 -1.915,-2.45625 -0.0895,-0.216065 -0.19125,-0.287717 -0.56146,-0.395338 -0.3658,-0.106343 -0.95343,-0.342943 -1.32565,-0.533754 -0.0329,-0.01687 -0.0729,0.267228 -0.0888,0.631327 l -0.029,0.662 -0.017,-0.665925 -0.017,-0.665926 -0.58805,-0.561741 c -0.56754,-0.542152 -0.75706,-0.878895 -0.65067,-1.156139 0.11488,-0.299375 0.31481,-0.229226 0.79735,0.279762 0.34864,0.367755 0.67821,0.607027 1.18032,0.856927 0.38314,0.19069 0.7296,0.346709 0.7699,0.346709 0.0403,0 0.0235,-0.257175 -0.0373,-0.5715 -0.0608,-0.314325 -0.11202,-1.134561 -0.11373,-1.822748 -0.003,-1.228869 -0.008,-1.260668 -0.2671,-1.778 -0.53724,-1.07201 -1.22733,-1.883523 -2.12785,-2.502238 l -0.40216,-0.276315 v 0.5544 c 0,0.313157 -0.0369,0.554401 -0.0847,0.554401 -0.0484,0 -0.0847,-0.253758 -0.0847,-0.591943 V 56.23856 l -0.45878,-0.258922 c -0.55222,-0.311654 -0.66353,-0.434174 -0.62722,-0.690366 0.0217,-0.152815 0.0895,-0.201079 0.31288,-0.22244 0.3555,-0.034 0.66324,0.08676 1.371,0.538012 0.66582,0.424516 1.53419,1.22143 2.027,1.860207 0.19748,0.255967 0.38409,0.465394 0.4147,0.465394 0.0306,0 0.10325,-0.349476 0.16142,-0.776614 0.13057,-0.958696 0.23865,-1.204363 0.54541,-1.239774 0.40409,-0.04664 0.43833,0.196303 0.23708,1.682183 -0.44907,3.315717 -0.28674,5.237513 0.56336,6.669558 l 0.318,0.535687 0.1014,-0.789687 c 0.16639,-1.295789 0.48097,-1.970934 1.24277,-2.667177 0.55338,-0.505753 1.59658,-1.076631 1.83128,-1.00214 0.23297,0.07394 0.2959,0.35237 0.13511,0.597776 -0.0748,0.114137 -0.1732,0.207521 -0.21869,0.207521 -0.047,0 -0.0827,0.292878 -0.0827,0.677334 0,0.395111 -0.0353,0.677333 -0.0847,0.677333 -0.0484,0 -0.0847,-0.254 -0.0847,-0.592667 0,-0.325966 -0.0209,-0.592666 -0.0465,-0.592666 -0.11632,0 -0.62107,0.3015 -0.94782,0.566156 -0.40721,0.32983 -0.74339,0.856256 -0.92313,1.445522 -0.14178,0.464832 -0.1684,2.16119 -0.0389,2.479956 0.0463,0.114051 0.62392,0.778866 1.28353,1.477366 0.65962,0.6985 1.36733,1.504454 1.5727,1.79101 0.67892,0.947324 1.1982,2.373101 0.95199,2.613907 -0.16269,0.15912 -0.50429,0.216805 -0.73122,0.123478 z m 4.75123,0.0037 c -0.28171,-0.116487 -0.30018,-0.210918 -0.15308,-0.782503 0.31591,-1.227507 0.80499,-1.950599 2.64618,-3.912295 l 1.1858,-1.263408 0.0559,-0.895592 c 0.0873,-1.397823 -0.0288,-1.982071 -0.63113,-3.175369 -0.46014,-0.91163 -0.49837,-1.02684 -0.39333,-1.185333 0.27757,-0.418792 0.64304,-0.143304 1.11151,0.837842 0.381,0.797945 0.54278,1.447036 0.60734,2.436768 0.0296,0.454025 0.082,0.8255 0.11629,0.8255 0.10985,0 0.73861,-1.294193 0.88437,-1.820333 0.22966,-0.828928 0.26464,-2.812828 0.077,-4.36665 -0.0867,-0.718306 -0.15831,-1.591763 -0.15904,-1.941013 -0.001,-0.626561 0.002,-0.63535 0.22619,-0.661279 0.34416,-0.03975 0.47413,0.245214 0.63291,1.387627 0.0771,0.555125 0.15364,1.025591 0.16997,1.045479 0.0751,0.09145 0.54265,-0.480926 0.71199,-0.871615 0.28739,-0.663033 0.30905,-1.473534 0.0705,-2.636815 -0.18452,-0.899623 -0.18902,-0.981858 -0.0607,-1.11014 0.21966,-0.219665 0.56225,-0.086 0.71469,0.27884 0.21227,0.50802 0.33403,2.208344 0.21641,3.021863 -0.0555,0.383805 -0.1071,0.96255 -0.11469,1.2861 l -0.0138,0.588273 -0.0497,-0.456183 -0.0497,-0.456182 -0.31728,0.462058 c -0.17451,0.254132 -0.47882,0.579077 -0.67626,0.7221 l -0.35898,0.260042 -0.01,1.300416 c -0.005,0.715228 -0.0577,1.559667 -0.11641,1.876531 -0.0587,0.316864 -0.0869,0.59594 -0.0627,0.62017 0.0242,0.02423 0.34282,-0.100729 0.70799,-0.277686 0.45481,-0.220397 0.83396,-0.489081 1.20371,-0.853003 0.29687,-0.292195 0.56547,-0.531263 0.5969,-0.531263 0.12746,0 0.26033,0.21632 0.26033,0.423817 0,0.286001 -0.2877,0.669732 -0.83739,1.116879 l -0.44054,0.358364 0.0164,0.618509 c 0.009,0.34018 -0.008,0.643142 -0.0384,0.673247 -0.0301,0.03011 -0.0547,-0.238135 -0.0547,-0.596093 v -0.650832 l -0.31853,0.162499 c -0.17519,0.08938 -0.59429,0.24626 -0.93133,0.348635 -0.33705,0.102374 -0.61281,0.231641 -0.61281,0.287261 0,0.05562 -0.19202,0.413151 -0.42671,0.794513 -0.40937,0.665203 -1.11484,1.440583 -2.53662,2.788012 -0.34925,0.330986 -0.7874,0.762182 -0.97367,0.958216 l -0.33867,0.356424 0.63586,-0.03804 c 1.20054,-0.07182 2.20332,-0.760309 2.78462,-1.911866 0.30164,-0.597547 0.39848,-0.679206 0.58466,-0.493023 0.11899,0.118988 0.12285,0.188362 0.03,0.539185 -0.0586,0.221444 -0.19993,0.544684 -0.31402,0.718311 -0.16665,0.253627 -0.20743,0.424226 -0.20743,0.867833 0,0.311655 -0.0369,0.552149 -0.0847,0.552149 -0.0466,0 -0.0847,-0.197628 -0.0847,-0.439174 v -0.439174 l -0.23284,0.216914 c -0.598,0.557115 -1.63181,0.944103 -3.01177,1.127408 -0.60152,0.0799 -0.73473,0.254669 -0.73473,0.96398 0,0.43236 -0.0383,0.628595 -0.14816,0.758389 -0.17669,0.208813 -0.5021,0.2886 -0.75334,0.184713 z"
         id="path3900"
         inkscape:connector-curvature="0" />
    </g>
  </g>
</svg>
